<svg width="107" height="34" viewBox="0 0 107 34" fill="none" xmlns="http://www.w3.org/2000/svg">
<g clip-path="url(#clip0_4_9)">
<path d="M0 4H32.6632V17.5849C32.6632 21.3238 30.4166 24.7789 26.7698 26.6485L16.3317 32L5.8934 26.6485C2.24652 24.7789 3.74361e-06 21.3238 3.74361e-06 17.5849L0 4Z" fill="#FFDD2D"/>
<path fill-rule="evenodd" clip-rule="evenodd" d="M9.0105 11V15.5077C9.70476 14.8116 10.9671 14.3406 12.4104 14.3406H13.9788V19.5807C13.9788 20.9748 13.5521 22.3399 12.9192 23.0111H19.7416C19.1099 22.3392 18.6843 20.9758 18.6843 19.5834V14.3406H20.2528C21.6961 14.3406 22.9583 14.8116 23.6526 15.5077V11H9.0105Z" fill="#333333"/>
<path d="M38.8518 6.68C39.2571 6.68 39.6198 6.78667 39.9398 7C40.2811 7.21333 40.4838 7.58667 40.5478 8.12C40.8038 9.80533 40.9638 11.4907 41.0278 13.176C41.1131 14.84 41.1558 16.728 41.1558 18.84C41.1558 19.736 41.0811 21.368 40.9318 23.736C41.8704 23.8213 42.5958 23.864 43.1078 23.864C43.4704 23.864 44.2918 23.8107 45.5718 23.704C46.3184 23.5973 46.9691 23.544 47.5238 23.544C48.0358 23.544 48.5051 23.5973 48.9318 23.704C49.3584 23.7893 49.7958 23.9387 50.2438 24.152C50.6918 24.408 50.9158 24.8027 50.9158 25.336C50.9158 25.7627 50.7771 26.1467 50.4998 26.488C50.2438 26.8293 49.9344 27 49.5718 27C49.3158 27 48.9104 26.9573 48.3558 26.872C47.3531 26.7227 46.3931 26.648 45.4758 26.648C45.1771 26.648 44.8358 26.6693 44.4518 26.712C44.0891 26.7333 43.8224 26.744 43.6518 26.744C43.1398 26.808 42.6278 26.84 42.1158 26.84C41.0704 26.84 40.1318 26.7867 39.2998 26.68C38.8731 26.6373 38.4464 26.4773 38.0198 26.2C37.5931 25.9013 37.3798 25.4747 37.3798 24.92C37.3798 24.6 37.4224 23.7787 37.5078 22.456C37.6571 20.2587 37.7318 18.584 37.7318 17.432C37.7318 16.536 37.6891 15.5973 37.6038 14.616C37.5184 13.6347 37.4651 13.016 37.4438 12.76C37.2518 10.9467 37.1558 9.45333 37.1558 8.28C37.1558 7.72533 37.2838 7.32 37.5398 7.064C37.8171 6.808 38.2544 6.68 38.8518 6.68ZM65.44 16.728C65.6107 17.0267 65.7494 17.464 65.856 18.04C65.9627 18.5947 66.016 19.096 66.016 19.544C66.016 20.376 65.8347 21.56 65.472 23.096C64 25.784 61.824 27.128 58.944 27.128C57.8774 27.128 56.7894 26.776 55.68 26.072C54.5707 25.368 53.8027 24.5573 53.376 23.64C52.8 21.8053 52.512 20.6427 52.512 20.152C52.512 19.2987 52.6934 18.392 53.056 17.432C53.44 16.472 53.92 15.64 54.496 14.936C54.8587 14.4453 55.5094 14.0293 56.448 13.688C57.3867 13.3253 58.24 13.144 59.008 13.144C60.5014 13.144 61.7707 13.432 62.816 14.008C63.8614 14.5627 64.736 15.4693 65.44 16.728ZM62.656 21.88C62.7627 21.6027 62.816 20.888 62.816 19.736C62.816 19.1173 62.6987 18.5093 62.464 17.912C62.2507 17.3147 61.9307 16.8027 61.504 16.376C61.4614 16.3333 61.344 16.2693 61.152 16.184C60.96 16.0773 60.6934 15.9813 60.352 15.896C60.032 15.7893 59.6587 15.736 59.232 15.736C58.0374 15.736 57.1627 16.216 56.608 17.176C56.0534 18.136 55.776 19.224 55.776 20.44C55.776 20.6533 55.8294 21.0587 55.936 21.656C56.064 22.2533 56.1707 22.6267 56.256 22.776C56.32 22.9253 56.48 23.1387 56.736 23.416C57.0134 23.672 57.344 23.9067 57.728 24.12C58.1334 24.312 58.5494 24.408 58.976 24.408C59.936 24.408 60.704 24.184 61.28 23.736C61.856 23.2667 62.3147 22.648 62.656 21.88ZM72.631 33.528C71.8204 33.528 71.1377 33.3893 70.583 33.112C70.0497 32.856 69.6444 32.536 69.367 32.152C69.111 31.7893 68.983 31.4693 68.983 31.192C68.983 30.8293 69.111 30.5413 69.367 30.328C69.623 30.136 69.9324 30.04 70.295 30.04C70.5084 30.04 70.711 30.104 70.903 30.232C71.095 30.36 71.2017 30.4347 71.223 30.456C71.3724 30.5627 71.5217 30.648 71.671 30.712C71.8204 30.7973 71.9804 30.84 72.151 30.84C72.6204 30.84 73.0044 30.5307 73.303 29.912C73.6017 29.2933 73.9004 28.2907 74.199 26.904C73.239 25.496 72.439 24.088 71.799 22.68L71.063 20.984C70.9564 20.728 70.6577 20.0667 70.167 19C69.6977 17.912 69.2284 16.952 68.759 16.12C68.4604 15.5227 68.311 15.1173 68.311 14.904C68.311 14.3707 68.4924 13.976 68.855 13.72C69.239 13.464 69.6764 13.336 70.167 13.336C70.5084 13.336 70.7644 13.4107 70.935 13.56C71.127 13.688 71.3404 13.9333 71.575 14.296C72.1937 15.32 72.8657 16.856 73.591 18.904C74.0177 20.0773 74.359 20.9733 74.615 21.592C74.871 22.1893 75.1804 22.7973 75.543 23.416C75.9057 22.584 76.3644 21.1653 76.919 19.16C77.2604 18.008 77.5377 17.0907 77.751 16.408C77.9857 15.704 78.2417 15.064 78.519 14.488C78.711 14.104 78.9457 13.7947 79.223 13.56C79.5217 13.3253 79.8524 13.208 80.215 13.208C80.5777 13.208 80.9617 13.3467 81.367 13.624C81.7937 13.88 82.007 14.1893 82.007 14.552C82.007 14.7653 81.9324 15.0213 81.783 15.32C80.951 17.24 80.215 19.0533 79.575 20.76C78.9564 22.4453 78.359 24.3013 77.783 26.328C77.4417 27.4587 77.079 28.536 76.695 29.56C76.3324 30.584 76.0764 31.2133 75.927 31.448C75.5004 32.0453 75.0204 32.536 74.487 32.92C73.9537 33.3253 73.335 33.528 72.631 33.528ZM96.303 27.128C95.5777 27.128 95.023 27.0213 94.639 26.808C94.255 26.5733 93.839 26.1467 93.391 25.528C92.8364 26.0187 92.0044 26.4133 90.895 26.712C89.807 27.0107 88.8684 27.16 88.079 27.16C86.7777 27.16 85.7217 26.808 84.911 26.104C84.1217 25.3787 83.727 24.3227 83.727 22.936C83.727 22.3387 83.887 21.7947 84.207 21.304C84.5484 20.792 84.9857 20.344 85.519 19.96C86.1164 19.5547 86.8204 19.2347 87.631 19C88.463 18.7653 89.2204 18.648 89.903 18.648C91.055 18.648 92.079 18.7547 92.975 18.968V18.936C92.975 17.784 92.687 16.9947 92.111 16.568C91.5564 16.12 90.6604 15.896 89.423 15.896C88.6337 15.896 87.951 16.248 87.375 16.952C87.1617 17.2293 86.7137 17.368 86.031 17.368C85.6897 17.368 85.4337 17.2293 85.263 16.952C85.1137 16.6533 85.039 16.3547 85.039 16.056C85.039 15.4373 85.295 14.904 85.807 14.456C86.3404 14.008 86.9804 13.6773 87.727 13.464C88.4737 13.2293 89.167 13.112 89.807 13.112C90.4257 13.112 91.1617 13.24 92.015 13.496C92.8684 13.752 93.5617 14.0933 94.095 14.52C94.735 15.0747 95.2257 15.7253 95.567 16.472C95.9297 17.1973 96.111 17.9973 96.111 18.872C96.111 19.1493 96.0897 19.5653 96.047 20.12C96.0044 20.76 95.983 21.2827 95.983 21.688C95.983 21.88 95.9617 22.1253 95.919 22.424C95.8764 22.808 95.855 23.128 95.855 23.384C95.855 23.6613 95.9404 23.928 96.111 24.184C96.2817 24.44 96.5164 24.6533 96.815 24.824C97.0924 24.9733 97.2737 25.1333 97.359 25.304C97.4444 25.4747 97.487 25.6667 97.487 25.88C97.487 26.0933 97.3484 26.36 97.071 26.68C96.815 26.9787 96.559 27.128 96.303 27.128ZM89.903 21.016C89.071 21.016 88.335 21.176 87.695 21.496C87.055 21.816 86.735 22.3813 86.735 23.192C86.735 23.5973 86.8737 23.9387 87.151 24.216C87.4497 24.4933 87.7697 24.632 88.111 24.632C89.0284 24.632 89.7964 24.536 90.415 24.344C91.0337 24.152 91.7804 23.8 92.655 23.288C92.7617 22.9467 92.8257 22.4667 92.847 21.848C92.847 21.6133 92.8577 21.432 92.879 21.304C91.727 21.112 90.735 21.016 89.903 21.016ZM103.477 22.04C103.477 22.8507 103.594 23.48 103.829 23.928C104.085 24.3547 104.405 24.568 104.789 24.568C105.002 24.568 105.205 24.5573 105.397 24.536C105.589 24.4933 105.781 24.472 105.973 24.472C106.186 24.472 106.368 24.5787 106.517 24.792C106.688 25.0053 106.773 25.24 106.773 25.496C106.773 26.008 106.528 26.4133 106.037 26.712C105.568 26.9893 104.928 27.128 104.117 27.128C103.541 27.128 102.954 26.9573 102.357 26.616C101.781 26.2533 101.301 25.6987 100.917 24.952C100.533 24.184 100.341 23.2347 100.341 22.104C100.341 19.672 100.384 17.6133 100.469 15.928C100.576 13.9227 100.629 11.3947 100.629 8.344C100.629 7.384 100.682 6.712 100.789 6.328C100.917 6.02933 101.12 5.80533 101.397 5.656C101.696 5.48533 102.005 5.4 102.325 5.4C102.645 5.4 102.922 5.45333 103.157 5.56C103.413 5.66667 103.584 5.83733 103.669 6.072C103.754 6.328 103.808 6.584 103.829 6.84C103.872 7.07467 103.893 7.416 103.893 7.864C103.893 8.73867 103.861 9.58133 103.797 10.392C103.754 11.3733 103.733 12.088 103.733 12.536C103.562 16.2907 103.477 19.4587 103.477 22.04Z" fill="#333333"/>
</g>
<defs>
<clipPath id="clip0_4_9">
<rect width="107" height="34" fill="white"/>
</clipPath>
</defs>
</svg>
